<svg width="200" height="45" viewBox="0 0 200 45" xmlns="http://www.w3.org/2000/svg"><style>.st0{fill:#34313f}</style><path class="st0" d="M55.027 21.789c3.041 0 5.083 1.372 6.332 3.078V.574c0-.457-.541-.748-.916-.457L30.407 22.038h.791c3.125 0 4.708 1.997 4.708 4.16 0 1.706-.875 2.953-2.083 3.494a.246.246 0 000 .458c1.375.582 2.374 2.038 2.374 3.785 0 2.496-1.624 4.451-4.749 4.451h-8.54a.328.328 0 01-.333-.333V27.737L.204 44.085c-.375.333-.208.915.292.915h60.322c.291 0 .5-.208.5-.5v-8.277c-1.625 1.497-3.75 2.454-6.332 2.454-4.833 0-8.749-3.328-8.749-8.444.042-5.158 4-8.444 8.79-8.444zM43.071 38.095a.285.285 0 01-.291.291h-2.875a.285.285 0 01-.292-.291V22.33c0-.167.125-.292.292-.292h2.875c.166 0 .291.125.291.292z" fill="#34313f"/><path class="st0" d="M26.408 28.527h4.04c1.167 0 1.917-.665 1.917-1.705 0-.998-.75-1.705-1.917-1.705h-4.207a.18.18 0 00-.167.166v2.953c0 .167.167.291.334.291zm0 6.823h4.207c1.292 0 2.083-.708 2.083-1.872 0-1.04-.75-1.872-2.083-1.872h-4.207a.328.328 0 00-.334.332v3.079c0 .166.167.332.334.332zm32.327-8.611c-.792-1.04-2.125-1.872-3.708-1.872-3 0-5.165 2.288-5.165 5.366s2.166 5.366 5.165 5.366c1.375 0 2.666-.582 3.375-1.165a.317.317 0 00.083-.208v-1.58a.269.269 0 00-.25-.25h-3.708a.328.328 0 01-.333-.333v-2.33c0-.207.167-.332.333-.332h6.874v-3.702l-2.208 1.206a.463.463 0 01-.458-.166zm5.207 3.494c0-5.033 3.625-8.444 8.29-8.444 3.042 0 5 1.539 6.166 3.41.083.126.042.333-.125.375l-1.875.998c-.125.084-.291.042-.333-.083-.791-1.248-2.25-2.163-3.833-2.163-3.124 0-5.457 2.454-5.457 5.907 0 3.41 2.333 5.907 5.457 5.907 1.583 0 3.042-.915 3.833-2.163.083-.125.208-.167.333-.084l1.875.957c.167.083.208.25.125.416-1.208 1.872-3.166 3.453-6.166 3.453-4.665-.042-8.29-3.494-8.29-8.486zm16.081 0c0-4.077 2.333-7.238 5.832-8.153 5.957-1.58 11.414 3.993 10.123 10.191-.791 3.827-3.833 6.448-7.874 6.448-4.749-.042-8.081-3.62-8.081-8.486zm13.289 0c0-3.37-2.083-5.907-5.25-5.907-3.207 0-5.248 2.538-5.248 5.907s2.041 5.907 5.249 5.907 5.249-2.58 5.249-5.907zm19.83 7.945V25.74l-4.958 12.521c0 .042-.083.083-.125.083h-1.041c-.042 0-.125-.041-.125-.083l-5-12.52v12.437c0 .125-.083.208-.208.208h-2.5c-.124 0-.208-.083-.208-.208V22.205c0-.125.084-.208.209-.208h3.582c.167 0 .292.083.375.25l4.375 11.23 4.332-11.23c.042-.167.208-.25.375-.25h3.583c.125 0 .208.083.208.208v15.973c0 .125-.083.208-.208.208h-2.5c-.041 0-.166-.083-.166-.208zm28.328-.083V22.33c0-.167.125-.292.291-.292h10.623c.167 0 .292.125.292.292v1.913a.285.285 0 01-.292.291h-7.748a.285.285 0 00-.292.291v3.62c0 .166.125.29.292.29h7.582c.166 0 .291.125.291.292v1.913a.285.285 0 01-.291.291h-7.582a.285.285 0 00-.292.291v3.952c0 .167.125.291.292.291h7.748c.167 0 .292.125.292.292v1.913a.285.285 0 01-.292.291h-10.623c-.166.125-.291 0-.291-.166zm24.537.125l-3.458-5.824c-.042-.083-.167-.125-.25-.125h-2.416a.285.285 0 00-.292.291v5.533a.285.285 0 01-.291.291h-2.25a.285.285 0 01-.291-.291V22.33c0-.167.125-.292.291-.292h6.916c3.249 0 5.374 2.08 5.374 5.117 0 2.704-1.667 4.243-3.5 4.7-.208.042-.291.25-.208.458.666 1.081 2.75 4.41 3.54 5.615.126.208 0 .458-.249.458h-2.625c-.125 0-.208-.042-.291-.166zm.375-11.107c0-1.58-1.167-2.579-2.791-2.579h-3.666a.285.285 0 00-.292.291v4.618c0 .166.125.29.292.29h3.666c1.624 0 2.79-.998 2.79-2.62zm22.371 10.982V22.33c0-.167.125-.292.291-.292h10.665c.167 0 .292.125.292.292v1.955a.285.285 0 01-.292.29h-7.79a.285.285 0 00-.292.292v3.66c0 .167.125.292.292.292h7.582c.166 0 .291.124.291.29v1.956a.285.285 0 01-.291.291h-7.582a.285.285 0 00-.292.291v3.994c0 .166.125.29.292.29h7.79c.167 0 .292.126.292.292v1.955a.285.285 0 01-.292.291h-10.665c-.166-.083-.291-.208-.291-.374zm-17.331-7.945c0-5.033 3.625-8.444 8.29-8.444 3.042 0 5 1.539 6.166 3.41.083.125.042.333-.125.375l-1.874.998c-.125.083-.292.042-.334-.083-.791-1.248-2.25-2.163-3.832-2.163-3.125 0-5.458 2.454-5.458 5.907 0 3.41 2.333 5.907 5.458 5.907 1.583 0 3.04-.916 3.832-2.164.084-.124.209-.166.334-.083l1.874.957c.167.083.208.25.125.416-1.208 1.872-3.166 3.453-6.165 3.453-4.666-.042-8.29-3.453-8.29-8.486zm-37.034 8.028V25.74l-4.958 12.521c0 .042-.083.083-.125.083h-1.041c-.042 0-.125-.041-.125-.083l-5-12.52v12.437c0 .125-.083.208-.208.208h-2.5c-.124 0-.207-.083-.207-.208V22.205c0-.125.083-.208.208-.208h3.583c.166 0 .291.083.374.25l4.375 11.23 4.332-11.23c.042-.167.209-.25.375-.25h3.583c.125 0 .208.083.208.208v15.973c0 .125-.083.208-.208.208h-2.5c-.083 0-.166-.083-.166-.208z" fill="#34313f"/></svg>