<svg width="160" height="47" viewBox="0 0 160 47" xmlns="http://www.w3.org/2000/svg"><path d="M34.938 9.439a.4.4 0 00-.379-.348c-.158 0-3.286-.063-3.286-.063S28.65 6.5 28.397 6.216c-.253-.253-.758-.19-.948-.127 0 0-.505.158-1.327.411-.126-.442-.348-.98-.632-1.548-.916-1.77-2.307-2.718-3.95-2.718-.126 0-.221 0-.348.032-.063-.063-.094-.127-.158-.158-.726-.759-1.643-1.138-2.749-1.106-2.117.063-4.234 1.611-5.972 4.329-1.201 1.928-2.117 4.33-2.402 6.194-2.433.758-4.14 1.295-4.203 1.295-1.232.38-1.264.411-1.422 1.58C4.223 15.285 1 40.217 1 40.217l27.05 4.677 11.723-2.907c-.031 0-4.803-32.327-4.835-32.548zM24.763 6.943c-.632.19-1.327.41-2.085.663 0-1.074-.158-2.591-.632-3.855 1.611.253 2.401 2.086 2.717 3.192zm-3.507 1.074c-1.422.442-2.97.916-4.52 1.39.443-1.674 1.265-3.318 2.276-4.424.38-.41.916-.853 1.517-1.106.632 1.233.758 2.97.727 4.14zm-2.908-5.593c.506 0 .917.095 1.264.347-.568.285-1.137.727-1.643 1.296-1.359 1.454-2.401 3.697-2.812 5.878-1.296.41-2.56.79-3.697 1.137.758-3.444 3.634-8.563 6.888-8.658z" fill="#95bf47"/><path d="M34.56 9.091c-.159 0-3.287-.063-3.287-.063S28.65 6.5 28.397 6.216a.507.507 0 00-.347-.158v38.836l11.723-2.907L34.97 9.439c-.063-.221-.253-.348-.41-.348z" fill="#5e8e3e"/><path d="M21.54 15.127l-1.359 5.088s-1.517-.696-3.318-.57c-2.654.159-2.654 1.834-2.654 2.244.158 2.276 6.13 2.781 6.478 8.122.253 4.202-2.212 7.078-5.815 7.3-4.297.22-6.667-2.308-6.667-2.308l.916-3.886s2.402 1.8 4.298 1.674a1.677 1.677 0 001.643-1.8c-.19-2.971-5.056-2.782-5.372-7.68-.253-4.108 2.433-8.247 8.374-8.626 2.307-.158 3.476.442 3.476.442z" fill="#fff"/><path d="M55.636 25.966c-1.358-.727-2.054-1.359-2.054-2.212 0-1.075.98-1.77 2.497-1.77 1.77 0 3.35.727 3.35.727l1.232-3.792s-1.138-.885-4.487-.885c-4.677 0-7.932 2.686-7.932 6.447 0 2.148 1.517 3.76 3.54 4.93 1.642.916 2.211 1.58 2.211 2.559 0 1.011-.821 1.833-2.338 1.833-2.244 0-4.393-1.17-4.393-1.17l-1.327 3.792s1.96 1.328 5.277 1.328c4.804 0 8.28-2.37 8.28-6.636-.032-2.307-1.77-3.95-3.856-5.151zm19.15-7.995c-2.37 0-4.234 1.138-5.656 2.844l-.064-.032L71.12 10.04h-5.34l-5.214 27.366h5.34l1.77-9.354c.695-3.539 2.528-5.72 4.234-5.72 1.201 0 1.675.822 1.675 1.992 0 .726-.063 1.643-.221 2.37l-2.022 10.712h5.34l2.086-11.06c.22-1.17.379-2.56.379-3.508.031-3.033-1.549-4.866-4.361-4.866zm16.495 0c-6.446 0-10.712 5.814-10.712 12.292 0 4.14 2.56 7.49 7.363 7.49 6.32 0 10.586-5.657 10.586-12.293.031-3.823-2.212-7.489-7.237-7.489zm-2.623 15.705c-1.832 0-2.59-1.548-2.59-3.507 0-3.066 1.58-8.058 4.486-8.058 1.896 0 2.528 1.643 2.528 3.223 0 3.286-1.611 8.342-4.424 8.342zm23.574-15.705c-3.602 0-5.656 3.192-5.656 3.192h-.064l.316-2.876h-4.74a118.787 118.787 0 01-1.074 7.11l-3.729 19.592h5.34l1.486-7.932h.126s1.106.696 3.129.696c6.288 0 10.396-6.447 10.396-12.956 0-3.603-1.612-6.826-5.53-6.826zm-5.12 15.768c-1.39 0-2.211-.79-2.211-.79l.885-4.992c.632-3.35 2.37-5.562 4.234-5.562 1.643 0 2.149 1.517 2.149 2.939 0 3.476-2.054 8.405-5.056 8.405zm18.298-23.447c-1.707 0-3.066 1.359-3.066 3.097 0 1.58 1.011 2.686 2.528 2.686h.063c1.675 0 3.097-1.138 3.129-3.097 0-1.548-1.043-2.686-2.655-2.686zm-3.888 8.121l-3.602 18.96h5.34l3.634-18.96zm18.992-.031h-3.729l.19-.885c.316-1.833 1.39-3.444 3.191-3.444a5.39 5.39 0 011.707.284l1.043-4.203s-.917-.474-2.908-.474c-1.896 0-3.792.537-5.245 1.77-1.833 1.548-2.686 3.792-3.097 6.067l-.158.885h-2.496l-.79 4.045h2.496l-2.844 14.978h5.34l2.844-14.978h3.698zm12.893.031s-3.35 8.438-4.835 13.051h-.063c-.095-1.485-1.327-13.05-1.327-13.05h-5.625l3.223 17.411c.063.38.032.632-.126.885-.632 1.2-1.675 2.37-2.908 3.223-1.01.727-2.148 1.2-3.033 1.517l1.485 4.55c1.074-.221 3.35-1.137 5.246-2.907 2.433-2.275 4.708-5.814 7.015-10.618L159 18.413z"/></svg>