<svg width="660" height="303" viewBox="0 0 660 303" fill="none" xmlns="http://www.w3.org/2000/svg"><g clip-path="url(#clip0)"><path opacity=".25" d="M352.708 15.337C306.936 42.474 276.219 92.47 276.219 149.8c0 31.66 9.348 60.998 25.496 85.568m258.97-1.221c15.783-24.448 25.011-53.541 25.011-84.957.121-86.057-69.448-155.856-155.165-155.856-4.613 0-9.105.244-13.476.611" stroke="#B9C9DA"/><path d="M585.817 148.579c0-85.69-69.448-155.245-155.286-155.245-4.613 0-9.105.244-13.476.611m-65.561 20.17c-45.529 27.137-75.275 77.134-75.275 134.464h-52.207" stroke="#B9C9DA"/><path opacity=".25" d="M461.492 50.665c-9.834-3.056-20.275-4.767-31.081-4.767-56.942 0-103.2 46.573-103.2 103.903 0 57.331 46.258 103.904 103.2 103.904s103.2-46.573 103.2-103.904c0-22.003-6.799-42.417-18.333-59.164" stroke="#B9C9DA"/><path d="M327.211 149.801c0 57.33 46.136 103.904 103.078 103.904 56.943 0 103.079-46.574 103.079-103.904h51.357M267.72 22.672c-27.439 35.205-43.708 79.456-43.708 127.618 0 22.492 3.521 44.129 10.198 64.299m117.286 58.675c22.704 14.668 50.143 23.225 79.646 23.225s56.821-8.557 79.403-23.103" stroke="#B9C9DA"/><path opacity=".25" d="M629.044 209.699c5.827-19.069 8.863-39.361 8.863-60.386 0-48.774-16.755-93.636-44.923-129.085m-411.83 64.786c-5.342 20.78-8.134 42.539-8.134 64.909 0 63.809 22.825 122.118 60.705 167.347" stroke="#B9C9DA"/><path opacity=".25" d="M516.613 395.504c100.408-35.694 172.405-132.019 172.405-245.335 0-87.402-42.858-164.657-108.421-211.842M312.643-81.231C258.615-52.994 215.756-6.176 192.445 50.788" stroke="#B9C9DA"/><path opacity=".25" d="M185.768-42.115c-40.794 52.685-65.077 118.94-65.077 190.938 0 171.992 138.653 311.468 309.722 311.468 90.33 0 171.554-38.873 228.132-100.848" stroke="#B9C9DA"/><path d="M681.492 331.939c36.788-51.219 58.399-114.295 58.399-182.26 0-136.175-86.688-251.936-207.614-294.476" stroke="#B9C9DA" stroke-opacity=".15"/><path opacity=".15" d="M429.805 515.298c199.48 0 361.2-162.823 361.2-363.664 0-200.84-161.72-363.663-361.2-363.663-199.479 0-361.2 162.823-361.2 363.663 0 200.841 161.721 363.664 361.2 363.664z" stroke="#B9C9DA"/><path opacity=".05" d="M429.198 566.639c228.011 0 412.8-186.049 412.8-415.615 0-229.567-184.789-415.616-412.8-415.616-228.011 0-412.8 186.05-412.8 415.616 0 229.566 184.789 415.615 412.8 415.615z" stroke="#B9C9DA"/><path d="M349.793 19.372c2.428 0 4.37-1.956 4.37-4.401s-1.942-4.4-4.37-4.4c-2.429 0-4.371 1.955-4.371 4.4 0 2.445 1.942 4.4 4.371 4.4zm-126.875 133.73c2.428 0 4.371-1.956 4.371-4.401 0-2.444-1.943-4.4-4.371-4.4-2.429 0-4.371 1.956-4.371 4.4 0 2.445 1.942 4.401 4.371 4.401zm-44.313-59.408c2.428 0 4.371-1.956 4.371-4.4 0-2.446-1.943-4.401-4.371-4.401-2.428 0-4.371 1.955-4.371 4.4 0 2.323 1.943 4.4 4.371 4.4zM191.84 53.6c2.428 0 4.37-1.956 4.37-4.4 0-2.445-1.942-4.401-4.37-4.401-2.429 0-4.371 1.956-4.371 4.4 0 2.323 1.942 4.401 4.371 4.401zm267.226 2.932c2.428 0 4.371-1.956 4.371-4.4 0-2.446-1.943-4.401-4.371-4.401-2.428 0-4.371 1.955-4.371 4.4 0 2.445 1.821 4.4 4.371 4.4zm55.969 41.562c2.428 0 4.371-1.956 4.371-4.4 0-2.445-1.943-4.401-4.371-4.401-2.428 0-4.371 1.956-4.371 4.4 0 2.445 1.943 4.401 4.371 4.401zm69.45 56.475c2.429 0 4.371-1.956 4.371-4.401s-1.942-4.4-4.371-4.4c-2.428 0-4.371 1.955-4.371 4.4-.121 2.323 1.943 4.401 4.371 4.401zm-349.786 66.865c2.428 0 4.371-1.956 4.371-4.401 0-2.444-1.943-4.4-4.371-4.4-2.428 0-4.371 1.956-4.371 4.4 0 2.445 1.943 4.401 4.371 4.401zm324.677 18.937c2.428 0 4.371-1.956 4.371-4.401s-1.943-4.401-4.371-4.401c-2.428 0-4.371 1.956-4.371 4.401-.121 2.445 1.943 4.401 4.371 4.401zm-48 36.245c2.428 0 4.371-1.956 4.371-4.401s-1.943-4.401-4.371-4.401c-2.428 0-4.371 1.956-4.371 4.401-.121 2.445 1.943 4.401 4.371 4.401zm-160 1.008c2.428 0 4.371-1.956 4.371-4.401s-1.943-4.401-4.371-4.401c-2.428 0-4.371 1.956-4.371 4.401-.121 2.445 1.943 4.401 4.371 4.401zm275.846-62.18c2.429 0 4.371-1.956 4.371-4.401s-1.942-4.4-4.371-4.4c-2.428 0-4.37 1.955-4.37 4.4 0 2.445 1.942 4.401 4.37 4.401z" fill="#00CA90"/><path fill-rule="evenodd" clip-rule="evenodd" d="M415.114-11.8l6.314 6.357-6.314 6.356-6.313-6.356 6.313-6.357zm-88.629 157.446l6.314 6.356-6.314 6.356-6.313-6.356 6.313-6.356zM590.677 14.97l6.313 6.357-6.313 6.357-6.314-6.357 6.314-6.356zm-294.06 218.322h8.863v8.924h-8.863v-8.924zM262.742 16.438h8.863v8.923h-8.863v-8.924z" fill="#00CA90"/><path d="M267.113 25.362c2.428 0 4.371-1.956 4.371-4.4 0-2.446-1.943-4.401-4.371-4.401-2.428 0-4.371 1.955-4.371 4.4 0 2.445 1.943 4.4 4.371 4.4z" fill="#00CA90"/></g><g filter="url(#filter0_d)"><path d="M503 151.5c0 40.041-32.459 72.5-72.5 72.5S358 191.541 358 151.5 390.459 79 430.5 79s72.5 32.459 72.5 72.5z" fill="#fff"/></g><path d="M484.088 151.587c0 29.595-23.992 53.587-53.587 53.587-29.595 0-53.587-23.992-53.587-53.587 0-29.595 23.992-53.587 53.587-53.587 29.595 0 53.587 23.992 53.587 53.587z" fill="url(#paint0_linear)"/><path opacity=".1" fill-rule="evenodd" clip-rule="evenodd" d="M432.976 142.625c5.515 1.023 9.66 5.385 10.64 10.706a.816.816 0 00.209.356.814.814 0 00.634.239l.209-.029 4.578-.61a7.296 7.296 0 002.076-.82c3.489-2.018 4.758-6.438 2.934-10.009l-.173-.305c-1.399-2.345-3.684-3.695-6.243-3.789-.094-2.519-1.434-4.936-3.763-6.278-3.589-2.084-8.181-.835-10.243 2.787a7.738 7.738 0 00-.814 2.09l-.599 4.602-.029.203a.823.823 0 00.231.639.662.662 0 00.353.218zm-15.583 15.732c1.016 5.853 5.347 10.265 10.63 11.307a.813.813 0 01.353.222.867.867 0 01.23.675l-.029.222-.605 4.864a8.102 8.102 0 01-.814 2.207c-2.004 3.708-6.392 5.056-9.938 3.118l-.302-.184c-2.328-1.486-3.668-3.915-3.762-6.634-2.501-.1-4.9-1.525-6.241-3.999-2.068-3.816-.829-8.696 2.767-10.887a7.408 7.408 0 012.076-.865l4.569-.636.201-.031a.798.798 0 01.635.245.743.743 0 01.23.376zm-.007-5.033c1.017-5.545 5.351-9.726 10.636-10.713a.812.812 0 00.584-.849l-.029-.21-.591-4.595a7.466 7.466 0 00-.815-2.09c-2.004-3.512-6.396-4.79-9.944-2.954l-.302.175c-2.33 1.408-3.671 3.708-3.765 6.285a7.51 7.51 0 00-6.244 3.788c-2.07 3.615-.829 8.238 2.769 10.313.663.385 1.37.654 2.077.821l4.571.602.202.029a.821.821 0 00.635-.232.895.895 0 00.216-.37zm15.59 16.341c5.515-1.08 9.66-5.685 10.64-11.301a.868.868 0 01.209-.375.792.792 0 01.634-.253l.209.031 4.578.643c.714.169 1.413.46 2.076.866 3.489 2.13 4.758 6.796 2.934 10.566l-.173.321c-1.399 2.475-3.684 3.9-6.243 4-.094 2.658-1.434 5.21-3.763 6.627-3.589 2.199-8.181.881-10.243-2.942a8.443 8.443 0 01-.814-2.207l-.599-4.857-.029-.215a.908.908 0 01.231-.674.712.712 0 01.353-.23z" fill="#203D12"/><path fill-rule="evenodd" clip-rule="evenodd" d="M432.976 137.548c5.515 1.023 9.66 5.385 10.64 10.706.036.13.108.254.209.355a.815.815 0 00.634.24l.209-.029 4.578-.61a7.326 7.326 0 002.076-.82c3.489-2.018 4.758-6.438 2.934-10.009l-.173-.305c-1.399-2.345-3.684-3.695-6.243-3.789-.094-2.519-1.434-4.936-3.763-6.279-3.589-2.083-8.181-.834-10.243 2.788a7.726 7.726 0 00-.814 2.09l-.599 4.602-.029.203a.823.823 0 00.231.639.662.662 0 00.353.218zm-15.583 15.699c1.016 5.545 5.347 9.725 10.63 10.712a.816.816 0 01.583.849l-.029.211-.605 4.609a7.433 7.433 0 01-.814 2.09c-2.004 3.512-6.392 4.79-9.938 2.954l-.302-.175c-2.328-1.408-3.668-3.708-3.762-6.285a7.507 7.507 0 01-6.241-3.788c-2.068-3.615-.829-8.238 2.767-10.313a7.641 7.641 0 012.076-.821l4.569-.602.201-.029a.821.821 0 01.635.232.696.696 0 01.23.356zm-.007-5.001c1.017-5.544 5.351-9.725 10.636-10.712a.812.812 0 00.584-.849l-.029-.211-.591-4.594a7.466 7.466 0 00-.815-2.09 7.487 7.487 0 00-9.944-2.954l-.302.174c-2.33 1.408-3.671 3.709-3.765 6.286a7.51 7.51 0 00-6.244 3.788c-2.07 3.614-.829 8.238 2.769 10.313.663.385 1.37.653 2.077.82l4.571.603.202.029a.821.821 0 00.635-.232.898.898 0 00.216-.371zm15.59 15.714c5.515-1.023 9.66-5.385 10.64-10.706a.816.816 0 01.209-.356.814.814 0 01.634-.239l.209.029 4.578.61a7.296 7.296 0 012.076.82c3.489 2.018 4.758 6.438 2.934 10.009l-.173.305c-1.399 2.345-3.684 3.695-6.243 3.789-.094 2.519-1.434 4.936-3.763 6.278-3.589 2.084-8.181.835-10.243-2.787a7.738 7.738 0 01-.814-2.09l-.599-4.602-.029-.203a.833.833 0 01.231-.639.715.715 0 01.353-.218z" fill="#fff"/><defs><linearGradient id="paint0_linear" x1="430.501" y1="205.174" x2="430.501" y2="98" gradientUnits="userSpaceOnUse"><stop stop-color="#0FBA89"/><stop offset="1" stop-color="#C6F3A3"/></linearGradient><clipPath id="clip0"><path fill="#fff" d="M0 0h660v302.046H0z"/></clipPath><filter id="filter0_d" x="338" y="69" width="185" height="185" filterUnits="userSpaceOnUse" color-interpolation-filters="sRGB"><feFlood flood-opacity="0" result="BackgroundImageFix"/><feColorMatrix in="SourceAlpha" values="0 0 0 0 0 0 0 0 0 0 0 0 0 0 0 0 0 0 127 0"/><feOffset dy="10"/><feGaussianBlur stdDeviation="10"/><feColorMatrix values="0 0 0 0 0.101961 0 0 0 0 0.207843 0 0 0 0 0.0941176 0 0 0 0.2 0"/><feBlend in2="BackgroundImageFix" result="effect1_dropShadow"/><feBlend in="SourceGraphic" in2="effect1_dropShadow" result="shape"/></filter></defs></svg>